<?xml version="1.0" encoding="UTF-8"?><svg xmlns="http://www.w3.org/2000/svg" xmlns:xlink="http://www.w3.org/1999/xlink" fill-opacity="1" color-rendering="auto" color-interpolation="auto" text-rendering="auto" stroke="black" stroke-linecap="square" width="434" stroke-miterlimit="10" shape-rendering="auto" stroke-opacity="1" fill="black" stroke-dasharray="none" font-weight="normal" stroke-width="1" height="481" font-family="'Dialog'" font-style="normal" stroke-linejoin="miter" font-size="12px" stroke-dashoffset="0" image-rendering="auto">
  <!--Generated by ySVG 2.5-->
  <defs id="genericDefs"/>
  <g>
    <defs id="defs1">
      <clipPath clipPathUnits="userSpaceOnUse" id="clipPath1">
        <path d="M0 0 L434 0 L434 481 L0 481 L0 0 Z"/>
      </clipPath>
      <clipPath clipPathUnits="userSpaceOnUse" id="clipPath2">
        <path d="M213 9 L647 9 L647 490 L213 490 L213 9 Z"/>
      </clipPath>
    </defs>
    <g fill="white" text-rendering="geometricPrecision" shape-rendering="geometricPrecision" transform="translate(-213,-9)" stroke="white">
      <rect x="213" width="434" height="481" y="9" clip-path="url(#clipPath2)" stroke="none"/>
    </g>
    <g text-rendering="geometricPrecision" stroke-miterlimit="1.45" shape-rendering="geometricPrecision" transform="matrix(1,0,0,1,-213,-9)" stroke-linecap="butt">
      <rect fill="none" x="258.25" width="138" height="30" y="275" clip-path="url(#clipPath2)"/>
      <text x="319.8613" xml:space="preserve" y="294.5352" clip-path="url(#clipPath2)" font-family="sans-serif" stroke="none">JIT</text>
      <rect fill="none" x="258.25" width="138" height="30" y="155" clip-path="url(#clipPath2)"/>
      <text x="310.5859" xml:space="preserve" y="174.5352" clip-path="url(#clipPath2)" font-family="sans-serif" stroke="none">Clang</text>
      <rect fill="none" x="463.75" width="138" height="30" y="275" clip-path="url(#clipPath2)"/>
      <text x="507.2939" xml:space="preserve" y="294.5352" clip-path="url(#clipPath2)" font-family="sans-serif" stroke="none">Executor</text>
      <rect fill="none" x="463.75" width="138" height="30" y="432" clip-path="url(#clipPath2)"/>
      <text x="493.8408" xml:space="preserve" y="451.5352" clip-path="url(#clipPath2)" font-family="sans-serif" stroke="none">Debug Server</text>
      <rect fill="none" x="258.25" width="138" height="30" y="432" clip-path="url(#clipPath2)"/>
      <text x="298.6328" xml:space="preserve" y="451.5352" clip-path="url(#clipPath2)" font-family="sans-serif" stroke="none">Debugger</text>
    </g>
    <g fill="rgb(153,204,255)" text-rendering="geometricPrecision" shape-rendering="geometricPrecision" transform="matrix(1,0,0,1,-213,-9)" stroke="rgb(153,204,255)">
      <rect x="258.25" y="95" clip-path="url(#clipPath2)" width="30" rx="4" ry="4" height="30" stroke="none"/>
    </g>
    <g text-rendering="geometricPrecision" stroke-miterlimit="1.45" shape-rendering="geometricPrecision" font-family="sans-serif" transform="matrix(1,0,0,1,-213,-9)" stroke-linecap="butt">
      <text x="268.2783" xml:space="preserve" y="114.5352" clip-path="url(#clipPath2)" stroke="none">.c</text>
    </g>
    <g fill="rgb(153,204,255)" text-rendering="geometricPrecision" shape-rendering="geometricPrecision" transform="matrix(1,0,0,1,-213,-9)" stroke="rgb(153,204,255)">
      <rect x="312.25" y="95" clip-path="url(#clipPath2)" width="30" rx="4" ry="4" height="30" stroke="none"/>
    </g>
    <g text-rendering="geometricPrecision" stroke-miterlimit="1.45" shape-rendering="geometricPrecision" font-family="sans-serif" transform="matrix(1,0,0,1,-213,-9)" stroke-linecap="butt">
      <text x="322.2783" xml:space="preserve" y="114.5352" clip-path="url(#clipPath2)" stroke="none">.c</text>
    </g>
    <g fill="rgb(153,204,255)" text-rendering="geometricPrecision" shape-rendering="geometricPrecision" transform="matrix(1,0,0,1,-213,-9)" stroke="rgb(153,204,255)">
      <rect x="366.25" y="95" clip-path="url(#clipPath2)" width="30" rx="4" ry="4" height="30" stroke="none"/>
    </g>
    <g text-rendering="geometricPrecision" stroke-miterlimit="1.45" shape-rendering="geometricPrecision" font-family="sans-serif" transform="matrix(1,0,0,1,-213,-9)" stroke-linecap="butt">
      <text x="376.2783" xml:space="preserve" y="114.5352" clip-path="url(#clipPath2)" stroke="none">.c</text>
    </g>
    <g fill="rgb(153,204,255)" text-rendering="geometricPrecision" shape-rendering="geometricPrecision" transform="matrix(1,0,0,1,-213,-9)" stroke="rgb(153,204,255)">
      <rect x="258.25" y="215" clip-path="url(#clipPath2)" width="30" rx="4" ry="4" height="30" stroke="none"/>
    </g>
    <g text-rendering="geometricPrecision" stroke-miterlimit="1.45" shape-rendering="geometricPrecision" font-family="sans-serif" transform="matrix(1,0,0,1,-213,-9)" stroke-linecap="butt">
      <text x="267.8828" xml:space="preserve" y="234.5352" clip-path="url(#clipPath2)" stroke="none">.ll</text>
    </g>
    <g fill="rgb(153,204,255)" text-rendering="geometricPrecision" shape-rendering="geometricPrecision" transform="matrix(1,0,0,1,-213,-9)" stroke="rgb(153,204,255)">
      <rect x="312.25" y="215" clip-path="url(#clipPath2)" width="30" rx="4" ry="4" height="30" stroke="none"/>
    </g>
    <g text-rendering="geometricPrecision" stroke-miterlimit="1.45" shape-rendering="geometricPrecision" font-family="sans-serif" transform="matrix(1,0,0,1,-213,-9)" stroke-linecap="butt">
      <text x="321.8828" xml:space="preserve" y="234.5352" clip-path="url(#clipPath2)" stroke="none">.ll</text>
    </g>
    <g fill="rgb(153,204,255)" text-rendering="geometricPrecision" shape-rendering="geometricPrecision" transform="matrix(1,0,0,1,-213,-9)" stroke="rgb(153,204,255)">
      <rect x="366.25" y="215" clip-path="url(#clipPath2)" width="30" rx="4" ry="4" height="30" stroke="none"/>
    </g>
    <g text-rendering="geometricPrecision" stroke-miterlimit="1.45" shape-rendering="geometricPrecision" font-family="sans-serif" transform="matrix(1,0,0,1,-213,-9)" stroke-linecap="butt">
      <text x="375.8828" xml:space="preserve" y="234.5352" clip-path="url(#clipPath2)" stroke="none">.ll</text>
    </g>
    <g fill="rgb(255,204,153)" text-rendering="geometricPrecision" shape-rendering="geometricPrecision" transform="matrix(1,0,0,1,-213,-9)" stroke="rgb(255,204,153)">
      <rect x="470.25" y="353.5" clip-path="url(#clipPath2)" width="125" rx="4" ry="4" height="30" stroke="none"/>
    </g>
    <g text-rendering="geometricPrecision" stroke-miterlimit="1.45" shape-rendering="geometricPrecision" font-family="sans-serif" transform="matrix(1,0,0,1,-213,-9)" stroke-linecap="butt">
      <text x="481.7734" xml:space="preserve" y="373.0352" clip-path="url(#clipPath2)" stroke="none">JIT target process</text>
    </g>
    <g fill="rgb(238,238,238)" text-rendering="geometricPrecision" shape-rendering="geometricPrecision" transform="matrix(1,0,0,1,-213,-9)" stroke="rgb(238,238,238)">
      <rect x="228.5" width="197.5" height="30" y="35" clip-path="url(#clipPath2)" stroke="none"/>
    </g>
    <g text-rendering="geometricPrecision" stroke-miterlimit="1.45" shape-rendering="geometricPrecision" font-family="sans-serif" transform="matrix(1,0,0,1,-213,-9)" stroke-linecap="butt">
      <text x="296.9482" xml:space="preserve" y="54.5352" clip-path="url(#clipPath2)" stroke="none">Local Host</text>
    </g>
    <g fill="rgb(238,238,238)" text-rendering="geometricPrecision" shape-rendering="geometricPrecision" transform="matrix(1,0,0,1,-213,-9)" stroke="rgb(238,238,238)">
      <rect x="434" width="197.5" height="30" y="35" clip-path="url(#clipPath2)" stroke="none"/>
    </g>
    <g text-rendering="geometricPrecision" stroke-miterlimit="1.45" shape-rendering="geometricPrecision" font-family="sans-serif" transform="matrix(1,0,0,1,-213,-9)" stroke-linecap="butt">
      <text x="495.4434" xml:space="preserve" y="54.5352" clip-path="url(#clipPath2)" stroke="none">Remote Host</text>
    </g>
    <g stroke-linecap="butt" transform="matrix(1,0,0,1,-213,-9)" fill="rgb(153,153,153)" text-rendering="geometricPrecision" shape-rendering="geometricPrecision" stroke-dasharray="6,2" stroke="rgb(153,153,153)" stroke-miterlimit="1.45">
      <path fill="none" d="M430 463.0858 L430 35" clip-path="url(#clipPath2)"/>
      <path fill="none" stroke-dasharray="none" d="M404.25 290 L455.75 290" clip-path="url(#clipPath2)" stroke="black"/>
      <path fill="black" stroke-dasharray="none" d="M396.25 290 L408.25 295 L405.25 290 L408.25 285 Z" clip-path="url(#clipPath2)" stroke="none"/>
      <path fill="black" stroke-dasharray="none" d="M463.75 290 L451.75 285 L454.75 290 L451.75 295 Z" clip-path="url(#clipPath2)" stroke="none"/>
      <path fill="none" stroke-dasharray="none" d="M404.25 447 L455.75 447" clip-path="url(#clipPath2)" stroke="black"/>
      <path fill="black" stroke-dasharray="none" d="M396.25 447 L408.25 452 L405.25 447 L408.25 442 Z" clip-path="url(#clipPath2)" stroke="none"/>
      <path fill="black" stroke-dasharray="none" d="M463.75 447 L451.75 442 L454.75 447 L451.75 452 Z" clip-path="url(#clipPath2)" stroke="none"/>
      <path fill="none" stroke-dasharray="none" d="M273.25 124.981 L273.25 147.0397" clip-path="url(#clipPath2)" stroke="black"/>
      <path fill="black" stroke-dasharray="none" d="M273.25 155.0397 L278.25 143.0397 L273.25 146.0397 L268.25 143.0397 Z" clip-path="url(#clipPath2)" stroke="none"/>
      <path fill="none" stroke-dasharray="none" d="M327.25 124.9707 L327.25 147" clip-path="url(#clipPath2)" stroke="black"/>
      <path fill="black" stroke-dasharray="none" d="M327.25 155 L332.25 143 L327.25 146 L322.25 143 Z" clip-path="url(#clipPath2)" stroke="none"/>
      <path fill="none" stroke-dasharray="none" d="M381.25 124.9854 L381.25 147.0262" clip-path="url(#clipPath2)" stroke="black"/>
      <path fill="black" stroke-dasharray="none" d="M381.25 155.0262 L386.25 143.0262 L381.25 146.0262 L376.25 143.0262 Z" clip-path="url(#clipPath2)" stroke="none"/>
      <path fill="none" stroke-dasharray="none" d="M273.25 184.999 L273.25 207.0143" clip-path="url(#clipPath2)" stroke="black"/>
      <path fill="black" stroke-dasharray="none" d="M273.25 215.0143 L278.25 203.0143 L273.25 206.0143 L268.25 203.0143 Z" clip-path="url(#clipPath2)" stroke="none"/>
      <path fill="none" stroke-dasharray="none" d="M273.25 244.981 L273.25 267.0398" clip-path="url(#clipPath2)" stroke="black"/>
      <path fill="black" stroke-dasharray="none" d="M273.25 275.0398 L278.25 263.0398 L273.25 266.0398 L268.25 263.0398 Z" clip-path="url(#clipPath2)" stroke="none"/>
      <path fill="none" stroke-dasharray="none" d="M327.25 185 L327.25 207.0146" clip-path="url(#clipPath2)" stroke="black"/>
      <path fill="black" stroke-dasharray="none" d="M327.25 215.0146 L332.25 203.0146 L327.25 206.0146 L322.25 203.0146 Z" clip-path="url(#clipPath2)" stroke="none"/>
      <path fill="none" stroke-dasharray="none" d="M327.25 244.9707 L327.25 267" clip-path="url(#clipPath2)" stroke="black"/>
      <path fill="black" stroke-dasharray="none" d="M327.25 275 L332.25 263 L327.25 266 L322.25 263 Z" clip-path="url(#clipPath2)" stroke="none"/>
      <path fill="none" stroke-dasharray="none" d="M381.25 185.0195 L381.25 207.0211" clip-path="url(#clipPath2)" stroke="black"/>
      <path fill="black" stroke-dasharray="none" d="M381.25 215.0211 L386.25 203.0211 L381.25 206.0211 L376.25 203.0211 Z" clip-path="url(#clipPath2)" stroke="none"/>
      <path fill="none" stroke-dasharray="none" d="M381.25 244.9707 L381.25 267.0049" clip-path="url(#clipPath2)" stroke="black"/>
      <path fill="black" stroke-dasharray="none" d="M381.25 275.0049 L386.25 263.0049 L381.25 266.0049 L376.25 263.0049 Z" clip-path="url(#clipPath2)" stroke="none"/>
      <path fill="none" stroke-dasharray="none" d="M532.75 305 L532.75 345.5242" clip-path="url(#clipPath2)" stroke="black"/>
      <path fill="black" stroke-dasharray="none" d="M532.75 353.5242 L537.75 341.5242 L532.75 344.5242 L527.75 341.5242 Z" clip-path="url(#clipPath2)" stroke="none"/>
      <path fill="none" stroke-dasharray="none" d="M532.75 432 L532.75 391.4758" clip-path="url(#clipPath2)" stroke="black"/>
      <path fill="black" stroke-dasharray="none" d="M532.75 383.4758 L527.75 395.4758 L532.75 392.4758 L537.75 395.4758 Z" clip-path="url(#clipPath2)" stroke="none"/>
    </g>
  </g>
</svg>
